# xmcd CD database file
#
# Track frame offsets:
#	150
#	17062
#	29987
#	46387
#	60900
#	78162
#	91125
#	107437
#	122037
#	136500
#	152125
#
# Disc length: 2200 seconds
#
# Revision: 0
# Processed by: cddbd v1.5.2PL0 Copyright (c) Steve Scherf et al.
# Submitted via: CDex 1.70beta2
#
DISCID=7d08960b
DTITLE=Various Artist - Nashville Shooters - Lets Kick A Little
DYEAR=1900
DGENRE=Country
TTITLE0=Kick a little
TTITLE1=I'm in a hurry
TTITLE2=Queen of Memphis
TTITLE3=Leavin's been a long time comin
TTITLE4=My love
TTITLE5=Dumas walkers
TTITLE6=God blessed Texas
TTITLE7=Rock my world (little country girl)
TTITLE8=The boys and me
TTITLE9=Reckless
TTITLE10=If Bubba can dance (I can too)
EXTD=
EXTT0=
EXTT1=
EXTT2=
EXTT3=
EXTT4=
EXTT5=
EXTT6=
EXTT7=
EXTT8=
EXTT9=
EXTT10=
PLAYORDER=
